<svg xmlns="http://www.w3.org/2000/svg" width="159.295" height="187.059" viewBox="0 0 159.295 187.059"><defs><style>.a{fill:#00dd80;}.b{fill:#00aa63;}.c{fill:#fff;}.d{fill:#e1ebf0;}.e{fill:#b4d2d7;}.f{fill:#6fa5aa;}</style></defs><g transform="translate(-0.5 0)"><path class="a" d="M151.381,124.917a94.373,94.373,0,0,1-22.6,35.212c-11.35,11.083-26.212,19.89-44.174,26.172a13.512,13.512,0,0,1-4.293.758h-.161a13.715,13.715,0,0,1-2.635-.26,14.232,14.232,0,0,1-1.811-.494c-17.983-6.272-32.864-15.075-44.226-26.158a94.2,94.2,0,0,1-22.6-35.2c-9.129-24.775-8.61-52.068-8.192-74l.007-.337c.084-1.811.138-3.713.168-5.814A19.826,19.826,0,0,1,19.531,25.369c21.507-1.2,38.145-8.215,52.361-22.071l.124-.114a11.983,11.983,0,0,1,16.268,0l.121.114c14.219,13.856,30.856,20.871,52.363,22.071a19.826,19.826,0,0,1,18.669,19.422c.03,2.115.084,4.015.168,5.814l0,.143C160.027,72.722,160.543,100.069,151.381,124.917Zm0,0" transform="translate(0 0)"/><path class="b" d="M290.02,124.919a94.373,94.373,0,0,1-22.6,35.212c-11.35,11.083-26.212,19.89-44.174,26.172a13.511,13.511,0,0,1-4.293.758V0a12,12,0,0,1,7.973,3.183l.121.114c14.219,13.856,30.856,20.871,52.363,22.071a19.826,19.826,0,0,1,18.669,19.422c.03,2.115.084,4.015.168,5.814l0,.143C298.665,72.724,299.182,100.071,290.02,124.919Zm0,0" transform="translate(-138.639 -0.002)"/><path class="c" d="M184.134,175.018a46.677,46.677,0,0,1-46.455,46.621h-.164a46.62,46.62,0,1,1,0-93.24h.164A46.677,46.677,0,0,1,184.134,175.018Zm0,0" transform="translate(-57.369 -81.488)"/><path class="d" d="M265.4,175.018a46.677,46.677,0,0,1-46.455,46.621V128.4A46.677,46.677,0,0,1,265.4,175.018Zm0,0" transform="translate(-138.639 -81.488)"/><path class="e" d="M198.838,221.349l-21,21-4.537,4.537a5.494,5.494,0,0,1-7.765,0l-9.755-9.759a5.488,5.488,0,1,1,7.761-7.761l5.877,5.877,21.654-21.654a5.488,5.488,0,0,1,7.761,7.761Zm0,0" transform="translate(-97.532 -134.533)"/><path class="f" d="M239.945,221.349l-21,21V226.822l13.235-13.234a5.488,5.488,0,0,1,7.761,7.761Zm0,0" transform="translate(-138.639 -134.533)"/></g></svg>