<svg xmlns="http://www.w3.org/2000/svg" width="26.971" height="26.971" viewBox="0 0 26.971 26.971"><defs><style>.a{fill:#5966fc;}</style></defs><path class="a" d="M23.81,2.107H22.546V0H20.439V2.107H6.532V0H4.425V2.107H3.161A3.164,3.164,0,0,0,0,5.268V23.81a3.164,3.164,0,0,0,3.161,3.161H23.81a3.164,3.164,0,0,0,3.161-3.161V5.268A3.164,3.164,0,0,0,23.81,2.107Zm1.054,21.7a1.055,1.055,0,0,1-1.054,1.054H3.161A1.055,1.055,0,0,1,2.107,23.81V9.9H24.864Zm0-16.014H2.107V5.268A1.055,1.055,0,0,1,3.161,4.214H4.425V6.321H6.532V4.214H20.439V6.321h2.107V4.214H23.81a1.055,1.055,0,0,1,1.054,1.054Z"/><g transform="translate(4.425 11.94)"><g transform="translate(0 0)"><rect class="a" width="2" height="2" transform="translate(0.286 -0.23)"/></g></g><g transform="translate(8.183 11.94)"><g transform="translate(0 0)"><rect class="a" width="2" height="2" transform="translate(-0.472 -0.23)"/></g></g><g transform="translate(11.94 11.94)"><g transform="translate(0 0)"><rect class="a" width="3" height="2" transform="translate(-0.23 -0.23)"/></g></g><g transform="translate(16.637 11.94)"><g transform="translate(0 0)"><rect class="a" width="2" height="2" transform="translate(0.073 -0.23)"/></g></g><g transform="translate(20.395 11.94)"><g transform="translate(0 0)"><rect class="a" width="3" height="2" transform="translate(0.316 -0.23)"/></g></g><g transform="translate(4.425 16.637)"><g transform="translate(0 0)"><rect class="a" width="2" height="2" transform="translate(0.286 0.073)"/></g></g><g transform="translate(8.183 16.637)"><g transform="translate(0 0)"><rect class="a" width="2" height="2" transform="translate(-0.472 0.073)"/></g></g><g transform="translate(11.94 16.637)"><g transform="translate(0 0)"><rect class="a" width="3" height="2" transform="translate(-0.23 0.073)"/></g></g><g transform="translate(16.637 16.637)"><g transform="translate(0 0)"><rect class="a" width="2" height="2" transform="translate(0.073 0.073)"/></g></g><g transform="translate(4.425 20.395)"><g transform="translate(0 0)"><rect class="a" width="2" height="2" transform="translate(0.286 0.316)"/></g></g><g transform="translate(8.183 20.395)"><g transform="translate(0 0)"><rect class="a" width="2" height="2" transform="translate(-0.472 0.316)"/></g></g><g transform="translate(11.94 20.395)"><g transform="translate(0 0)"><rect class="a" width="3" height="2" transform="translate(-0.23 0.316)"/></g></g><g transform="translate(16.637 20.395)"><g transform="translate(0 0)"><rect class="a" width="2" height="2" transform="translate(0.073 0.316)"/></g></g><g transform="translate(20.395 16.637)"><g transform="translate(0 0)"><rect class="a" width="3" height="2" transform="translate(0.316 0.073)"/></g></g></svg>