<svg xmlns="http://www.w3.org/2000/svg" width="68.716" height="76.649" viewBox="0 0 68.716 76.649"><defs><style>.a{fill:#707487;}.b{fill:#e6af78;}.c{fill:#b4e1fa;}.d{fill:#d29b6e;}.e{fill:#f0c087;}.f{fill:#a0d2f0;}.g{fill:#5b5d6e;}.h{fill:#515262;}.i{fill:#785550;}.j{fill:#694b4b;}.k{fill:#5a4146;}.l{fill:#464655;}</style></defs><g transform="translate(-26.495 -0.001)"><path class="a" d="M117.411,194.647l-1.912-.956a1.321,1.321,0,0,1-.73-1.182v-4.974a1.322,1.322,0,0,1,.73-1.182l1.912-.956Z" transform="translate(-75.058 -157.642)"/><path class="b" d="M200.344,309.4v-9.25H176.558v9.25l11.893,10.572Z" transform="translate(-127.598 -255.216)"/><path class="c" d="M91.136,365.3,74.784,361.45a2.624,2.624,0,0,1-.687-.276L60.853,368.9l-12.728-8.1a2.633,2.633,0,0,1-1.2.65L30.57,365.3a5.286,5.286,0,0,0-4.075,5.145v10.35a2.643,2.643,0,0,0,2.643,2.643h63.43a2.643,2.643,0,0,0,2.643-2.643v-10.35A5.285,5.285,0,0,0,91.136,365.3Z" transform="translate(0 -306.786)"/><path class="d" d="M176.558,300.149v9.76c14.982,5.4,23.786-8.112,23.786-8.112v-1.648H176.558Z" transform="translate(-127.598 -255.215)"/><path class="e" d="M141.249,97.127l1.152,25.334a7.929,7.929,0,0,0,3.163,5.983l5.464,4.1a7.93,7.93,0,0,0,4.757,1.586h5.286a7.929,7.929,0,0,0,4.757-1.586l5.464-4.1a7.929,7.929,0,0,0,3.163-5.983l1.152-25.334Z" transform="translate(-97.575 -82.586)"/><path class="b" d="M154.464,102.412c5.286,0,13.215-1.321,15.1-5.286h-28.31L142.4,122.46a7.929,7.929,0,0,0,3.163,5.983l5.464,4.1a7.93,7.93,0,0,0,4.757,1.586h2.643c-2.643,0-7.929-5.286-7.929-11.893V106.376A4.219,4.219,0,0,1,154.464,102.412Z" transform="translate(-97.575 -82.585)"/><g transform="translate(26.495 60.381)"><path class="f" d="M36.2,411.024l-8.563-7.692a5.277,5.277,0,0,0-1.138,3.276v10.35a2.643,2.643,0,0,0,2.643,2.643h9.25V415.94A6.608,6.608,0,0,0,36.2,411.024Z" transform="translate(-26.498 -403.332)"/><path class="f" d="M408.255,411.024l8.563-7.692a5.277,5.277,0,0,1,1.138,3.276v10.35a2.643,2.643,0,0,1-2.643,2.643h-9.25V415.94A6.607,6.607,0,0,1,408.255,411.024Z" transform="translate(-349.241 -403.332)"/></g><path class="g" d="M240.541,444.449h-6.607l.826-11.893h4.956Z" transform="translate(-176.385 -367.8)"/><path class="h" d="M240.541,414.9h-6.607v2.487a1.477,1.477,0,0,0,1.477,1.477h3.652a1.477,1.477,0,0,0,1.477-1.477V414.9Z" transform="translate(-176.385 -352.789)"/><g transform="translate(44.996 50.903)"><path class="f" d="M153.857,340.36l12.079,10.871a45.576,45.576,0,0,0-7.557,5.15,1.7,1.7,0,0,1-2.626-.594L150.078,343.3l1.8-2.693A1.321,1.321,0,0,1,153.857,340.36Z" transform="translate(-150.078 -340.021)"/><path class="f" d="M268.081,340.36,256,351.231a45.578,45.578,0,0,1,7.557,5.15,1.7,1.7,0,0,0,2.625-.594l5.675-12.484-1.8-2.693A1.321,1.321,0,0,0,268.081,340.36Z" transform="translate(-240.145 -340.021)"/></g><path class="i" d="M309.516,33.984l1.239,8.755c5.655,1.131,6.47,10.006,6.587,12.541a2.606,2.606,0,0,0,.418,1.291l2.158,3.347s-.738-5.534,2.643-9.25C322.561,50.667,323.722,28.7,309.516,33.984Z" transform="translate(-240.652 -28.198)"/><path class="j" d="M119.3,3.419l1.955,1.335c-8.837,6.525-7.185,17.716-7.185,17.716,2.643,2.643,2.643,9.25,2.643,9.25l2.643-2.643s-1.02-7.635,3.964-10.572c4.625-2.726,8.672-1.321,12.8-1.321,11.067,0,14.164-4.171,13.628-9.25-.278-2.628-4.3-8.1-14.536-7.929C131.083.075,123.323,1.326,119.3,3.419Z" transform="translate(-74.363 0)"/><path class="k" d="M118.532,43.025a14.516,14.516,0,0,1,2.726-11.274c-8.837,6.525-7.185,17.716-7.185,17.716,2.643,2.643,2.643,9.25,2.643,9.25l2.643-2.643s-1.02-7.635,3.964-10.572c4.625-2.726,8.672-1.321,12.8-1.321a32.467,32.467,0,0,0,4.765-.327C132.367,44.14,127.342,37.684,118.532,43.025Z" transform="translate(-74.363 -26.997)"/><path class="g" d="M126.9,188.463h-1.982a1.321,1.321,0,0,1-1.321-1.321v-9.25a1.321,1.321,0,0,1,1.321-1.321H126.9a.661.661,0,0,1,.661.661V187.8A.661.661,0,0,1,126.9,188.463Z" transform="translate(-82.564 -150.136)"/><path class="l" d="M291.311,256.107v-1.982c8.944,0,10.9-5.008,10.9-6.938H304.2C304.2,249.668,301.881,256.107,291.311,256.107Z" transform="translate(-225.172 -210.181)"/><path class="g" d="M276.3,293.966h-1.321a1.321,1.321,0,0,1-1.321-1.321h0a1.321,1.321,0,0,1,1.321-1.321H276.3a1.321,1.321,0,0,1,1.321,1.321h0A1.322,1.322,0,0,1,276.3,293.966Z" transform="translate(-210.161 -247.71)"/><path class="a" d="M379.582,194.647l1.912-.956a1.321,1.321,0,0,0,.73-1.182v-4.974a1.322,1.322,0,0,0-.73-1.182l-1.912-.956Z" transform="translate(-300.228 -157.642)"/><path class="g" d="M362.588,188.463h1.982a1.321,1.321,0,0,0,1.321-1.321v-9.25a1.321,1.321,0,0,0-1.321-1.321h-1.982a.661.661,0,0,0-.661.661V187.8A.661.661,0,0,0,362.588,188.463Z" transform="translate(-285.216 -150.136)"/><path class="f" d="M310.71,494.346h-9.25a1.321,1.321,0,0,0-1.321,1.321v1.321h11.893v-1.321A1.322,1.322,0,0,0,310.71,494.346Z" transform="translate(-232.678 -420.34)"/></g></svg>